<svg width="99" height="21" viewBox="0 0 99 21" fill="none" xmlns="http://www.w3.org/2000/svg">
<path d="M2.24609 9.49219H0.0488281C0.0683594 9.27734 0.123698 9.07552 0.214844 8.88672C0.30599 8.69141 0.423177 8.52539 0.566406 8.38867C0.716146 8.24544 0.882161 8.13151 1.06445 8.04688C1.25326 7.96224 1.45182 7.91992 1.66016 7.91992H2.24609V2.67578C2.24609 2.33073 2.29167 2.00846 2.38281 1.70898C2.48047 1.40299 2.61068 1.13932 2.77344 0.917969C2.94271 0.690104 3.13802 0.514323 3.35938 0.390625C3.58724 0.260417 3.82812 0.195312 4.08203 0.195312H10.2148V1.8457H4.58984V7.91992H8.45703V9.49219H4.58984V13.3301H11.084C11.0579 13.5579 10.9928 13.776 10.8887 13.9844C10.791 14.1862 10.6641 14.362 10.5078 14.5117C10.3581 14.6615 10.1855 14.7819 9.99023 14.873C9.79492 14.9577 9.58984 15 9.375 15H4.10156C3.84115 15 3.59701 14.9349 3.36914 14.8047C3.14779 14.6745 2.95247 14.4987 2.7832 14.2773C2.62044 14.056 2.49023 13.7956 2.39258 13.4961C2.29492 13.1966 2.24609 12.8776 2.24609 12.5391V9.49219ZM17.1184 4.18945H19.4621C19.4035 4.33268 19.3579 4.47591 19.3254 4.61914C19.2993 4.75586 19.2798 4.86979 19.2668 4.96094C19.2473 5.20182 19.2863 5.41992 19.384 5.61523C19.4816 5.81055 19.6118 5.99935 19.7746 6.18164C19.9439 6.35742 20.1359 6.5332 20.3508 6.70898C20.5721 6.88477 20.7967 7.07031 21.0246 7.26562C21.285 7.47396 21.5487 7.71484 21.8156 7.98828C22.0826 8.25521 22.3234 8.55143 22.5383 8.87695C22.7531 9.19596 22.9257 9.53776 23.0559 9.90234C23.1926 10.2604 23.2544 10.6348 23.2414 11.0254C23.2284 11.2988 23.1698 11.5625 23.0656 11.8164C22.9615 12.0638 22.8247 12.2884 22.6555 12.4902C22.4862 12.6855 22.2876 12.8548 22.0598 12.998C21.8384 13.1413 21.604 13.2454 21.3566 13.3105H24.9895C24.8983 13.5645 24.7876 13.7956 24.6574 14.0039C24.5337 14.2057 24.3905 14.3815 24.2277 14.5312C24.0715 14.681 23.899 14.7982 23.7102 14.8828C23.5214 14.9609 23.326 15 23.1242 15H20.4484C20.149 15 19.8983 14.9544 19.6965 14.8633C19.5012 14.7656 19.3449 14.6387 19.2277 14.4824C19.1171 14.3262 19.0389 14.1471 18.9934 13.9453C18.9543 13.737 18.9445 13.5221 18.9641 13.3008C19.1724 13.2747 19.3775 13.2194 19.5793 13.1348C19.7811 13.0501 19.9602 12.9297 20.1164 12.7734C20.2792 12.6107 20.4126 12.4089 20.5168 12.168C20.6275 11.9271 20.6958 11.6374 20.7219 11.2988C20.7479 11.0319 20.7219 10.7812 20.6438 10.5469C20.5656 10.3125 20.4615 10.0911 20.3313 9.88281C20.201 9.67448 20.0513 9.47591 19.882 9.28711C19.7128 9.09831 19.5467 8.91602 19.384 8.74023C19.2147 8.51888 19.0454 8.25195 18.8762 7.93945C18.7069 7.62695 18.5865 7.24609 18.5148 6.79688L15.4289 15H13.0168L17.1184 4.18945ZM29.6176 17.7832C29.6176 18.1283 29.5688 18.4505 29.4711 18.75C29.3799 19.056 29.2497 19.3197 29.0805 19.541C28.9177 19.7689 28.7257 19.9479 28.5043 20.0781C28.2829 20.2148 28.0453 20.2832 27.7914 20.2832H27.2836V4.77539H34.1293C34.3832 4.77539 34.6208 4.84049 34.8422 4.9707C35.0635 5.10091 35.2589 5.27995 35.4281 5.50781C35.5974 5.72917 35.7309 5.98958 35.8285 6.28906C35.9262 6.58854 35.975 6.91081 35.975 7.25586V13.3301H38.0355C38.0095 13.5579 37.9444 13.776 37.8402 13.9844C37.7426 14.1862 37.6156 14.362 37.4594 14.5117C37.3096 14.6615 37.1371 14.7819 36.9418 14.873C36.7465 14.9577 36.5414 15 36.3266 15H31.1801C30.8676 15 30.5746 14.9023 30.3012 14.707C30.0277 14.5052 29.7966 14.2383 29.6078 13.9062L29.6176 17.7832ZM33.641 13.3203V6.44531H29.6078V13.3203H33.641ZM40.5445 7.25586C40.5445 6.91081 40.5934 6.58854 40.691 6.28906C40.7887 5.98958 40.9189 5.72917 41.0816 5.50781C41.2509 5.27995 41.4495 5.10091 41.6773 4.9707C41.9052 4.84049 42.1461 4.77539 42.4 4.77539H47.5855C47.8395 4.77539 48.0771 4.84049 48.2984 4.9707C48.5263 5.10091 48.7249 5.27995 48.8941 5.50781C49.0634 5.72917 49.1969 5.98958 49.2945 6.28906C49.3922 6.58854 49.441 6.91081 49.441 7.25586V10.5078H42.8785V13.3301H50.0465C50.0204 13.5579 49.9553 13.776 49.8512 13.9844C49.7535 14.1862 49.6266 14.362 49.4703 14.5117C49.3206 14.6615 49.148 14.7819 48.9527 14.873C48.7574 14.9577 48.5523 15 48.3375 15H42.4C42.1461 15 41.9052 14.9349 41.6773 14.8047C41.4495 14.6745 41.2509 14.4987 41.0816 14.2773C40.9189 14.0495 40.7887 13.7858 40.691 13.4863C40.5934 13.1868 40.5445 12.8646 40.5445 12.5195V7.25586ZM47.107 9.14062V6.44531H42.8785V9.14062H47.107ZM53.8055 7.25586C53.8055 6.91081 53.8543 6.58854 53.952 6.28906C54.0496 5.98958 54.1798 5.72917 54.3426 5.50781C54.5118 5.27995 54.7104 5.10091 54.9383 4.9707C55.1661 4.84049 55.407 4.77539 55.6609 4.77539H60.7977C61.0516 4.77539 61.2892 4.84049 61.5105 4.9707C61.7384 5.10091 61.937 5.27995 62.1063 5.50781C62.2755 5.72917 62.409 5.98958 62.5066 6.28906C62.6043 6.58854 62.6531 6.91081 62.6531 7.25586V9.07227H60.3191V6.44531H56.1297V13.3301H62.9656C62.9396 13.5579 62.8745 13.7728 62.7703 13.9746C62.6727 14.1764 62.5457 14.3522 62.3895 14.502C62.2397 14.6517 62.0672 14.7721 61.8719 14.8633C61.6766 14.9479 61.4715 14.9935 61.2566 15H55.6609C55.407 15.0065 55.1661 14.9447 54.9383 14.8145C54.7104 14.6842 54.5118 14.5085 54.3426 14.2871C54.1798 14.0592 54.0496 13.7956 53.952 13.4961C53.8543 13.1901 53.8055 12.8646 53.8055 12.5195V7.25586ZM67.3008 6.2793H66.5195V4.77539H67.3008V2.06055L69.6348 0.898438V4.77539H72.2617V6.2793H69.6348V13.3301H73.1309C73.1048 13.5579 73.0397 13.776 72.9355 13.9844C72.8379 14.1862 72.7109 14.362 72.5547 14.5117C72.3984 14.6615 72.2227 14.7819 72.0273 14.873C71.832 14.9577 71.627 15 71.4121 15H69.1562C68.9023 15 68.6615 14.9349 68.4336 14.8047C68.2057 14.6745 68.0072 14.4987 67.8379 14.2773C67.6751 14.0495 67.5449 13.7858 67.4473 13.4863C67.3496 13.1868 67.3008 12.8646 67.3008 12.5195V6.2793ZM75.2883 3.70117H77.632V4.77539H84.9953C84.9693 5.00326 84.9042 5.22135 84.8 5.42969C84.7023 5.63151 84.5786 5.80729 84.4289 5.95703C84.2792 6.10677 84.1066 6.22721 83.9113 6.31836C83.7225 6.40299 83.5272 6.44531 83.3254 6.44531V13.3301H85.591C85.565 13.5579 85.4999 13.776 85.3957 13.9844C85.298 14.1862 85.1711 14.362 85.0148 14.5117C84.8586 14.6615 84.6796 14.7819 84.4777 14.873C84.2759 14.9577 84.0611 15 83.8332 15H82.8566C82.6027 15 82.3619 14.9349 82.134 14.8047C81.9061 14.6745 81.7076 14.4987 81.5383 14.2773C81.369 14.0495 81.2355 13.7858 81.1379 13.4863C81.0402 13.1868 80.9914 12.8646 80.9914 12.5195V6.44531H77.6125V15H75.2883V3.70117ZM88.5492 7.25586C88.5492 6.91081 88.598 6.58854 88.6957 6.28906C88.7934 5.98958 88.9236 5.72917 89.0863 5.50781C89.2556 5.27995 89.4542 5.10091 89.682 4.9707C89.9099 4.84049 90.1508 4.77539 90.4047 4.77539H95.5902C95.8441 4.77539 96.0818 4.84049 96.3031 4.9707C96.531 5.10091 96.7296 5.27995 96.8988 5.50781C97.0681 5.72917 97.2016 5.98958 97.2992 6.28906C97.3969 6.58854 97.4457 6.91081 97.4457 7.25586V10.5078H90.8832V13.3301H98.0512C98.0251 13.5579 97.96 13.776 97.8559 13.9844C97.7582 14.1862 97.6312 14.362 97.475 14.5117C97.3253 14.6615 97.1527 14.7819 96.9574 14.873C96.7621 14.9577 96.557 15 96.3422 15H90.4047C90.1508 15 89.9099 14.9349 89.682 14.8047C89.4542 14.6745 89.2556 14.4987 89.0863 14.2773C88.9236 14.0495 88.7934 13.7858 88.6957 13.4863C88.598 13.1868 88.5492 12.8646 88.5492 12.5195V7.25586ZM95.1117 9.14062V6.44531H90.8832V9.14062H95.1117Z" fill="#1890FF"/>
</svg>
