<svg width="158" height="48" viewBox="0 0 158 48" fill="none" xmlns="http://www.w3.org/2000/svg">
<circle cx="16" cy="24" r="16" fill="#1890FF"/>
<circle cx="32" cy="24" r="15" fill="white" stroke="#1890FF" stroke-width="2"/>
<path d="M28.2461 26.4922H26.0488C26.0684 26.2773 26.1237 26.0755 26.2148 25.8867C26.306 25.6914 26.4232 25.5254 26.5664 25.3887C26.7161 25.2454 26.8822 25.1315 27.0645 25.0469C27.2533 24.9622 27.4518 24.9199 27.6602 24.9199H28.2461V19.6758C28.2461 19.3307 28.2917 19.0085 28.3828 18.709C28.4805 18.403 28.6107 18.1393 28.7734 17.918C28.9427 17.6901 29.138 17.5143 29.3594 17.3906C29.5872 17.2604 29.8281 17.1953 30.082 17.1953H36.2148V18.8457H30.5898V24.9199H34.457V26.4922H30.5898V30.3301H37.084C37.0579 30.5579 36.9928 30.776 36.8887 30.9844C36.791 31.1862 36.6641 31.362 36.5078 31.5117C36.3581 31.6615 36.1855 31.7819 35.9902 31.873C35.7949 31.9577 35.5898 32 35.375 32H30.1016C29.8411 32 29.597 31.9349 29.3691 31.8047C29.1478 31.6745 28.9525 31.4987 28.7832 31.2773C28.6204 31.056 28.4902 30.7956 28.3926 30.4961C28.2949 30.1966 28.2461 29.8776 28.2461 29.5391V26.4922Z" fill="#1890FF"/>
<path d="M60.2461 27.4922H58.0488C58.0684 27.2773 58.1237 27.0755 58.2148 26.8867C58.306 26.6914 58.4232 26.5254 58.5664 26.3887C58.7161 26.2454 58.8822 26.1315 59.0645 26.0469C59.2533 25.9622 59.4518 25.9199 59.6602 25.9199H60.2461V20.6758C60.2461 20.3307 60.2917 20.0085 60.3828 19.709C60.4805 19.403 60.6107 19.1393 60.7734 18.918C60.9427 18.6901 61.138 18.5143 61.3594 18.3906C61.5872 18.2604 61.8281 18.1953 62.082 18.1953H68.2148V19.8457H62.5898V25.9199H66.457V27.4922H62.5898V31.3301H69.084C69.0579 31.5579 68.9928 31.776 68.8887 31.9844C68.791 32.1862 68.6641 32.362 68.5078 32.5117C68.3581 32.6615 68.1855 32.7819 67.9902 32.873C67.7949 32.9577 67.5898 33 67.375 33H62.1016C61.8411 33 61.597 32.9349 61.3691 32.8047C61.1478 32.6745 60.9525 32.4987 60.7832 32.2773C60.6204 32.056 60.4902 31.7956 60.3926 31.4961C60.2949 31.1966 60.2461 30.8776 60.2461 30.5391V27.4922ZM75.1184 22.1895H77.4621C77.4035 22.3327 77.3579 22.4759 77.3254 22.6191C77.2993 22.7559 77.2798 22.8698 77.2668 22.9609C77.2473 23.2018 77.2863 23.4199 77.384 23.6152C77.4816 23.8105 77.6118 23.9993 77.7746 24.1816C77.9439 24.3574 78.1359 24.5332 78.3508 24.709C78.5721 24.8848 78.7967 25.0703 79.0246 25.2656C79.285 25.474 79.5487 25.7148 79.8156 25.9883C80.0826 26.2552 80.3234 26.5514 80.5383 26.877C80.7531 27.196 80.9257 27.5378 81.0559 27.9023C81.1926 28.2604 81.2544 28.6348 81.2414 29.0254C81.2284 29.2988 81.1698 29.5625 81.0656 29.8164C80.9615 30.0638 80.8247 30.2884 80.6555 30.4902C80.4862 30.6855 80.2876 30.8548 80.0598 30.998C79.8384 31.1413 79.604 31.2454 79.3566 31.3105H82.9895C82.8983 31.5645 82.7876 31.7956 82.6574 32.0039C82.5337 32.2057 82.3905 32.3815 82.2277 32.5312C82.0715 32.681 81.899 32.7982 81.7102 32.8828C81.5214 32.9609 81.326 33 81.1242 33H78.4484C78.149 33 77.8983 32.9544 77.6965 32.8633C77.5012 32.7656 77.3449 32.6387 77.2277 32.4824C77.1171 32.3262 77.0389 32.1471 76.9934 31.9453C76.9543 31.737 76.9445 31.5221 76.9641 31.3008C77.1724 31.2747 77.3775 31.2194 77.5793 31.1348C77.7811 31.0501 77.9602 30.9297 78.1164 30.7734C78.2792 30.6107 78.4126 30.4089 78.5168 30.168C78.6275 29.9271 78.6958 29.6374 78.7219 29.2988C78.7479 29.0319 78.7219 28.7812 78.6438 28.5469C78.5656 28.3125 78.4615 28.0911 78.3313 27.8828C78.201 27.6745 78.0513 27.4759 77.882 27.2871C77.7128 27.0983 77.5467 26.916 77.384 26.7402C77.2147 26.5189 77.0454 26.252 76.8762 25.9395C76.7069 25.627 76.5865 25.2461 76.5148 24.7969L73.4289 33H71.0168L75.1184 22.1895ZM87.6176 35.7832C87.6176 36.1283 87.5688 36.4505 87.4711 36.75C87.3799 37.056 87.2497 37.3197 87.0805 37.541C86.9177 37.7689 86.7257 37.9479 86.5043 38.0781C86.2829 38.2148 86.0453 38.2832 85.7914 38.2832H85.2836V22.7754H92.1293C92.3832 22.7754 92.6208 22.8405 92.8422 22.9707C93.0635 23.1009 93.2589 23.2799 93.4281 23.5078C93.5974 23.7292 93.7309 23.9896 93.8285 24.2891C93.9262 24.5885 93.975 24.9108 93.975 25.2559V31.3301H96.0355C96.0095 31.5579 95.9444 31.776 95.8402 31.9844C95.7426 32.1862 95.6156 32.362 95.4594 32.5117C95.3096 32.6615 95.1371 32.7819 94.9418 32.873C94.7465 32.9577 94.5414 33 94.3266 33H89.1801C88.8676 33 88.5746 32.9023 88.3012 32.707C88.0277 32.5052 87.7966 32.2383 87.6078 31.9062L87.6176 35.7832ZM91.641 31.3203V24.4453H87.6078V31.3203H91.641ZM98.5445 25.2559C98.5445 24.9108 98.5934 24.5885 98.691 24.2891C98.7887 23.9896 98.9189 23.7292 99.0816 23.5078C99.2509 23.2799 99.4495 23.1009 99.6773 22.9707C99.9052 22.8405 100.146 22.7754 100.4 22.7754H105.586C105.839 22.7754 106.077 22.8405 106.298 22.9707C106.526 23.1009 106.725 23.2799 106.894 23.5078C107.063 23.7292 107.197 23.9896 107.295 24.2891C107.392 24.5885 107.441 24.9108 107.441 25.2559V28.5078H100.879V31.3301H108.046C108.02 31.5579 107.955 31.776 107.851 31.9844C107.754 32.1862 107.627 32.362 107.47 32.5117C107.321 32.6615 107.148 32.7819 106.953 32.873C106.757 32.9577 106.552 33 106.338 33H100.4C100.146 33 99.9052 32.9349 99.6773 32.8047C99.4495 32.6745 99.2509 32.4987 99.0816 32.2773C98.9189 32.0495 98.7887 31.7858 98.691 31.4863C98.5934 31.1868 98.5445 30.8646 98.5445 30.5195V25.2559ZM105.107 27.1406V24.4453H100.879V27.1406H105.107ZM111.805 25.2559C111.805 24.9108 111.854 24.5885 111.952 24.2891C112.05 23.9896 112.18 23.7292 112.343 23.5078C112.512 23.2799 112.71 23.1009 112.938 22.9707C113.166 22.8405 113.407 22.7754 113.661 22.7754H118.798C119.052 22.7754 119.289 22.8405 119.511 22.9707C119.738 23.1009 119.937 23.2799 120.106 23.5078C120.276 23.7292 120.409 23.9896 120.507 24.2891C120.604 24.5885 120.653 24.9108 120.653 25.2559V27.0723H118.319V24.4453H114.13V31.3301H120.966C120.94 31.5579 120.874 31.7728 120.77 31.9746C120.673 32.1764 120.546 32.3522 120.389 32.502C120.24 32.6517 120.067 32.7721 119.872 32.8633C119.677 32.9479 119.471 32.9935 119.257 33H113.661C113.407 33.0065 113.166 32.9447 112.938 32.8145C112.71 32.6842 112.512 32.5085 112.343 32.2871C112.18 32.0592 112.05 31.7956 111.952 31.4961C111.854 31.1901 111.805 30.8646 111.805 30.5195V25.2559ZM125.301 24.2793H124.52V22.7754H125.301V20.0605L127.635 18.8984V22.7754H130.262V24.2793H127.635V31.3301H131.131C131.105 31.5579 131.04 31.776 130.936 31.9844C130.838 32.1862 130.711 32.362 130.555 32.5117C130.398 32.6615 130.223 32.7819 130.027 32.873C129.832 32.9577 129.627 33 129.412 33H127.156C126.902 33 126.661 32.9349 126.434 32.8047C126.206 32.6745 126.007 32.4987 125.838 32.2773C125.675 32.0495 125.545 31.7858 125.447 31.4863C125.35 31.1868 125.301 30.8646 125.301 30.5195V24.2793ZM133.288 21.7012H135.632V22.7754H142.995C142.969 23.0033 142.904 23.2214 142.8 23.4297C142.702 23.6315 142.579 23.8073 142.429 23.957C142.279 24.1068 142.107 24.2272 141.911 24.3184C141.723 24.403 141.527 24.4453 141.325 24.4453V31.3301H143.591C143.565 31.5579 143.5 31.776 143.396 31.9844C143.298 32.1862 143.171 32.362 143.015 32.5117C142.859 32.6615 142.68 32.7819 142.478 32.873C142.276 32.9577 142.061 33 141.833 33H140.857C140.603 33 140.362 32.9349 140.134 32.8047C139.906 32.6745 139.708 32.4987 139.538 32.2773C139.369 32.0495 139.236 31.7858 139.138 31.4863C139.04 31.1868 138.991 30.8646 138.991 30.5195V24.4453H135.613V33H133.288V21.7012ZM146.549 25.2559C146.549 24.9108 146.598 24.5885 146.696 24.2891C146.793 23.9896 146.924 23.7292 147.086 23.5078C147.256 23.2799 147.454 23.1009 147.682 22.9707C147.91 22.8405 148.151 22.7754 148.405 22.7754H153.59C153.844 22.7754 154.082 22.8405 154.303 22.9707C154.531 23.1009 154.73 23.2799 154.899 23.5078C155.068 23.7292 155.202 23.9896 155.299 24.2891C155.397 24.5885 155.446 24.9108 155.446 25.2559V28.5078H148.883V31.3301H156.051C156.025 31.5579 155.96 31.776 155.856 31.9844C155.758 32.1862 155.631 32.362 155.475 32.5117C155.325 32.6615 155.153 32.7819 154.957 32.873C154.762 32.9577 154.557 33 154.342 33H148.405C148.151 33 147.91 32.9349 147.682 32.8047C147.454 32.6745 147.256 32.4987 147.086 32.2773C146.924 32.0495 146.793 31.7858 146.696 31.4863C146.598 31.1868 146.549 30.8646 146.549 30.5195V25.2559ZM153.112 27.1406V24.4453H148.883V27.1406H153.112Z" fill="#1890FF"/>
</svg>
