<svg width="48" height="48" viewBox="0 0 48 48" fill="none" xmlns="http://www.w3.org/2000/svg">
<circle cx="16" cy="24" r="16" fill="#1890FF"/>
<circle cx="32" cy="24" r="15" fill="white" stroke="#1890FF" stroke-width="2"/>
<path d="M28.2461 26.4922H26.0488C26.0684 26.2773 26.1237 26.0755 26.2148 25.8867C26.306 25.6914 26.4232 25.5254 26.5664 25.3887C26.7161 25.2454 26.8822 25.1315 27.0645 25.0469C27.2533 24.9622 27.4518 24.9199 27.6602 24.9199H28.2461V19.6758C28.2461 19.3307 28.2917 19.0085 28.3828 18.709C28.4805 18.403 28.6107 18.1393 28.7734 17.918C28.9427 17.6901 29.138 17.5143 29.3594 17.3906C29.5872 17.2604 29.8281 17.1953 30.082 17.1953H36.2148V18.8457H30.5898V24.9199H34.457V26.4922H30.5898V30.3301H37.084C37.0579 30.5579 36.9928 30.776 36.8887 30.9844C36.791 31.1862 36.6641 31.362 36.5078 31.5117C36.3581 31.6615 36.1855 31.7819 35.9902 31.873C35.7949 31.9577 35.5898 32 35.375 32H30.1016C29.8411 32 29.597 31.9349 29.3691 31.8047C29.1478 31.6745 28.9525 31.4987 28.7832 31.2773C28.6204 31.056 28.4902 30.7956 28.3926 30.4961C28.2949 30.1966 28.2461 29.8776 28.2461 29.5391V26.4922Z" fill="#1890FF"/>
</svg>
